<?xml version="1.0" encoding="utf-8"?>
<!-- Generator: Adobe Illustrator 23.0.1, SVG Export Plug-In . SVG Version: 6.00 Build 0)  -->
<svg version="1.1" id="Layer_1" xmlns="http://www.w3.org/2000/svg" xmlns:xlink="http://www.w3.org/1999/xlink" x="0px" y="0px"
	 viewBox="0 0 120 97" style="enable-background:new 0 0 120 97;" xml:space="preserve">
<style type="text/css">
	.st0{fill:#FFFFFF;}
</style>
<g>
	<g>
		<g>
			<path class="st0" d="M30.46,48.11c1.98-6.28,4.01-13.28,8.42-18.34c4.2-4.82,10.28-6.77,16.54-6.66
				c12.81,0.21,19.7,10.57,24.75,20.94c1.41,2.89,5.72,0.36,4.32-2.52c-6.17-12.69-15.24-23.91-30.64-23.4
				c-16.99,0.56-23.65,14.2-28.21,28.66C24.66,49.85,29.49,51.17,30.46,48.11L30.46,48.11z"/>
		</g>
	</g>
	<g>
		<g>
			<path class="st0" d="M26.28,49.21c8.69,7.38,20.46,12.65,32.1,11.87c10.88-0.73,20.55-7.93,26.11-17.04
				c1.68-2.75-2.64-5.27-4.32-2.52C75.3,49.48,66.54,56.07,56.9,56.13C47.01,56.19,37.27,52,29.81,45.67
				C27.37,43.6,23.82,47.12,26.28,49.21L26.28,49.21z"/>
		</g>
	</g>
	<g>
		<g>
			<path class="st0" d="M52.7,45.28c3.22,0,3.22-5,0-5C49.48,40.28,49.48,45.28,52.7,45.28L52.7,45.28z"/>
		</g>
	</g>
	<g>
		<g>
			<path class="st0" d="M60.83,45.28c3.22,0,3.22-5,0-5C57.61,40.28,57.61,45.28,60.83,45.28L60.83,45.28z"/>
		</g>
	</g>
	<g>
		<g>
			<path class="st0" d="M51.76,48.75c0.35,1.93,2.05,3.48,4.01,3.61c2.06,0.13,3.73-1.22,4.45-3.05c0.71-1.79-2.19-2.57-2.89-0.8
				c-0.62,1.56-2.44,0.75-2.68-0.55C54.31,46.05,51.42,46.86,51.76,48.75L51.76,48.75z"/>
		</g>
	</g>
	<g>
		<g>
			<path class="st0" d="M29.76,25.51c-2.8-2.36-5.89-4.11-9.38-5.24c-3.07-0.99-4.38,3.83-1.33,4.82c2.63,0.85,5.06,2.17,7.17,3.95
				C28.67,31.11,32.22,27.59,29.76,25.51L29.76,25.51z"/>
		</g>
	</g>
	<g>
		<g>
			<path class="st0" d="M45.81,14.34c-0.51-3.43-1.57-6.67-3.06-9.8c-1.39-2.9-5.7-0.37-4.32,2.52c1.3,2.73,2.11,5.61,2.56,8.6
				c0.2,1.35,1.88,2.06,3.08,1.75C45.5,17.04,46.01,15.67,45.81,14.34L45.81,14.34z"/>
		</g>
	</g>
	<g>
		<g>
			<path class="st0" d="M68.43,17.19c1.38-3.26,3.26-6.17,5.74-8.69c2.26-2.3-1.28-5.84-3.54-3.54c-2.76,2.82-4.99,6.07-6.52,9.7
				c-0.53,1.25-0.37,2.66,0.9,3.42C66.05,18.72,67.91,18.44,68.43,17.19L68.43,17.19z"/>
		</g>
	</g>
	<g>
		<g>
			<path class="st0" d="M85.77,31.12c3.09-2.53,6.45-4.69,10-6.53c2.86-1.49,0.33-5.8-2.52-4.32c-3.93,2.05-7.58,4.51-11.01,7.31
				C79.75,29.63,83.3,33.14,85.77,31.12L85.77,31.12z"/>
		</g>
	</g>
	<g>
		<g>
			<path class="st0" d="M27.82,44.47c-7.08-1.99-16.25-0.03-20.84,6.03c-4.36,5.77-3.85,14.81,2.73,18.81
				c1.59,0.97,3.12,0.94,4.86,1.5c4.07,1.31,4.27,2.41,5.45,5.77c1.27,3.62,2.84,7.16,6.16,9.37c2.86,1.91,6.48,2.54,9.75,1.33
				c1.42-0.53,2.63-1.45,3.69-2.51c1.12-1.12,3.02-4.89,4.43-5.29c5.81-1.65,6.99,7.33,9.84,10.48c2.26,2.5,5.56,3.79,8.91,3.7
				c9.89-0.26,9.99-9.65,14.1-16.15c4.37-6.92,9.59,0.31,13.76,3.06c2.88,1.9,6.62,3.27,9.98,1.75c10.74-4.87-2.16-18.99,5.43-24.15
				c3.56-2.42,8.17-3.26,9.61-7.95c0.95-3.11-0.47-6.14-2.89-8.07c-3.71-2.97-9.19-3.4-13.74-3.88c-5.99-0.63-11.74-0.03-17.38,2.1
				c-2.98,1.13-1.69,5.96,1.33,4.82c3.85-1.45,7.73-2.24,11.85-2.18c3.47,0.05,10.45-0.02,13.39,2.18c2.08,1.56,2.58,4.65,0.19,6.19
				c-1.34,0.87-2.89,1.38-4.28,2.15c-2.33,1.3-4.26,3.02-5.18,5.59c-0.99,2.77-0.49,5.76,0.16,8.54c0.37,1.59,0.88,3.13,1.05,4.75
				c0.28,2.67,0.42,2.92-2.11,4.22c-2.54,1.31-3.01,0.86-5.21-0.66c-4.52-3.13-8.86-8.5-15.02-5.92c-5.25,2.2-6.53,8.04-8.45,12.77
				c-1.74,4.27-5.95,7.79-10.57,4.82c-3.08-1.98-3.73-6.52-5.67-9.37c-2.71-3.97-7.49-6.02-11.7-3.03c-2.25,1.6-3.23,4.31-5.33,5.99
				c-5.02,4.03-9.29-0.66-11.05-5.39c-0.99-2.66-1.66-5.56-3.79-7.59c-2.63-2.51-6.14-1.48-9.01-3.26
				c-5.38-3.33-3.16-11.04,1.35-13.91c3.66-2.33,8.79-2.94,12.91-1.79C29.6,50.17,30.92,45.34,27.82,44.47L27.82,44.47z"/>
		</g>
	</g>
</g>
</svg>
